A Very Harold and Kumar 3D Christmas 2011 1080p ac3+dts nlsubs
.
[IMG]http://img543.imageshack.us/img543/9332/av2012.jpg[/IMG]
.
Verenigde Staten
Komedie
90 minuten

geregisseerd door Todd Strauss-Schulson
met John Cho, Kal Penn en Neil Patrick Harris

Zes jaar na Guantanamo Bay leven Harold en Kumar ver van elkaar bij twee heel verschillende families. Tot Harold plots tijdens de vakantieperiode voor de deur van Kumar staat met een mysterieus pakje in de hand. Vanaf dan lijkt alles weer in orde. Tot Harold de kerstboom van Kumars schoonvader per ongeluk in brand steekt. De twee willen het probleem oplossen en reizen door New York om de perfecte kerstboom te vinden waardoor ze opnieuw in de meest hilarische situaties terechtkomen.
. 
http://www.moviemeter.nl/film/77850
.
PLOT
.
Six years after their Guantanamo Bay adventure, stoner buds Harold Lee and Kumar Patel cause a holiday fracas by inadvertently burning down Harold's father-in-law's prize Christmas tree. 
. 
http://www.imdb.com/title/tt1268799/
.
INFO
.
Movie..............: A Very Harold & Kumar 3D Christmas (2011)
Genre..............: Komedie
Source.............: A.Very.Harold.And.Kumar.Christmas.2011.1080p.BluRay.x264-SPARKS
Runtime............: 90 min.
Format.............: x264 (MKV)
Beeld..............: 1080p 1920x*800
Audio..............: English AC3+DTS
Subs...............: English, Dutch
Subtitles.ENG......: Optional
Subtitles.NL.......: Vertaald door Tokke, Thnx good Job *****
Controle...........: Tokke
Bewerking+Resync...: Tokke en Suurtje, klasse werk collega's thnx!!! 
.
Enjoy
.
Format                           : Matroska
Format version                   : Version 2
File size                        : 6.96 GiB
Duration                         : 1h 29mn
Overall bit rate                 : 11.1 Mbps
Encoded date                     : UTC 2012-01-21 19:15:46
Writing application              : mkvmerge v5.2.0 ('I can't explain') built on Dec 18 2011 18:12:03
Writing library                  : libebml v1.2.3 + libmatroska v1.3.0

Video
ID                               : 1
Format                           : AVC
Format/Info                      : Advanced Video Codec
Format profile                   : High@L4.1
Format settings, CABAC           : Yes
Format settings, ReFrames        : 5 frames
Codec ID                         : V_MPEG4/ISO/AVC
Duration                         : 1h 29mn
Bit rate                         : 8 963 Kbps
Width                            : 1 920 pixels
Height                           : 800 pixels
Display aspect ratio             : 2.40:1
Frame rate                       : 23.976 fps
Color space                      : YUV
Chroma subsampling               : 4:2:0
Bit depth                        : 8 bits
Scan type                        : Progressive
Bits/(Pixel*Frame)               : 0.243
Stream size                      : 5.47 GiB (79%)
Writing library                  : x264 core 120 r2145 748fe16
Encoding settings                : cabac=1 / ref=5 / deblock=1:0:0 / analyse=0x3:0x133 / me=umh / subme=7 / psy=1 / psy_rd=1.00:0.00 / mixed_ref=1 / me_range=16 / chroma_me=1 / trellis=1 / 8x8dct=1 / cqm=0 / deadzone=21,11 / fast_pskip=0 / chroma_qp_offset=-2 / threads=12 / sliced_threads=0 / nr=0 / decimate=1 / interlaced=0 / bluray_compat=0 / constrained_intra=0 / bframes=3 / b_pyramid=2 / b_adapt=1 / b_bias=0 / direct=1 / weightb=1 / open_gop=0 / weightp=2 / keyint=250 / keyint_min=23 / scenecut=40 / intra_refresh=0 / rc_lookahead=40 / rc=2pass / mbtree=1 / bitrate=8963 / ratetol=1.0 / qcomp=0.60 / qpmin=0 / qpmax=69 / qpstep=4 / cplxblur=20.0 / qblur=0.5 / ip_ratio=1.40 / aq=1:1.00
Language                         : English
Default                          : Yes
Forced                           : No

Audio #1
ID                               : 2
Format                           : DTS
Format/Info                      : Digital Theater Systems
Codec ID                         : A_DTS
Duration                         : 1h 29mn
Bit rate mode                    : Constant
Bit rate                         : 1 510 Kbps
Channel(s)                       : 6 channels
Channel positions                : Front: L C R, Side: L R, LFE
Sampling rate                    : 48.0 KHz
Bit depth                        : 24 bits
Compression mode                 : Lossy
Stream size                      : 968 MiB (14%)
Title                            : DTS
Language                         : English
Default                          : Yes
Forced                           : No

Audio #2
ID                               : 3
Format                           : AC-3
Format/Info                      : Audio Coding 3
Mode extension                   : CM (complete main)
Codec ID                         : A_AC3
Duration                         : 1h 29mn
Bit rate mode                    : Constant
Bit rate                         : 640 Kbps
Channel(s)                       : 6 channels
Channel positions                : Front: L C R, Side: L R, LFE
Sampling rate                    : 48.0 KHz
Bit depth                        : 16 bits
Compression mode                 : Lossy
Stream size                      : 410 MiB (6%)
Title                            : AC3
Language                         : English
Default                          : No
Forced                           : No

Text #1
ID                               : 4
Format                           : UTF-8
Codec ID                         : S_TEXT/UTF8
Codec ID/Info                    : UTF-8 Plain Text
Language                         : Dutch
Default                          : No
Forced                           : No

Text #2
ID                               : 5
Format                           : UTF-8
Codec ID                         : S_TEXT/UTF8
Codec ID/Info                    : UTF-8 Plain Text
Language                         : English
Default                          : Yes
Forced                           : No
